<svg width="100" height="100" viewBox="0 0 100 100" fill="none" xmlns="http://www.w3.org/2000/svg">
    <rect width="100" height="100" rx="24" fill="white" />
    <path fill-rule="evenodd" clip-rule="evenodd"
        d="M49.7292 10C27.2263 10 9 28.2263 9 50.7292C9 68.7518 20.6587 83.9743 36.8486 89.371C38.885 89.7273 39.6487 88.5055 39.6487 87.4363C39.6487 86.469 39.5978 83.2616 39.5978 79.8505C29.3646 81.7342 26.7172 77.3559 25.9026 75.0648C25.4444 73.8939 23.4589 70.2792 21.7279 69.3118C20.3023 68.5482 18.2659 66.6644 21.677 66.6135C24.8844 66.5626 27.1754 69.5664 27.9391 70.7883C31.6047 76.9486 37.4595 75.2176 39.8014 74.1484C40.1578 71.501 41.227 69.7191 42.3979 68.7009C33.3357 67.6827 23.8661 64.1698 23.8661 48.5909C23.8661 44.1616 25.4444 40.496 28.0409 37.6449C27.6336 36.6267 26.2081 32.452 28.4482 26.8517C28.4482 26.8517 31.8592 25.7826 39.6487 31.0264C42.907 30.11 46.369 29.6518 49.831 29.6518C53.293 29.6518 56.7549 30.11 60.0133 31.0264C67.8027 25.7316 71.2138 26.8517 71.2138 26.8517C73.4539 32.452 72.0284 36.6267 71.6211 37.6449C74.2176 40.496 75.7958 44.1107 75.7958 48.5909C75.7958 64.2207 66.2754 67.6827 57.2132 68.7009C58.6896 69.9737 59.9624 72.4174 59.9624 76.2358C59.9624 81.6833 59.9115 86.0617 59.9115 87.4363C59.9115 88.5055 60.6751 89.7782 62.7116 89.371C78.7996 83.9743 90.4583 68.7009 90.4583 50.7292C90.4583 28.2263 72.232 10 49.7292 10Z"
        fill="#1F2328" />
</svg>
